<svg version="1.1" id="Layer_1" xmlns="http://www.w3.org/2000/svg" xmlns:xlink="http://www.w3.org/1999/xlink" x="0px" y="0px"
	 width="100%" viewBox="0 0 992 640" enable-background="new 0 0 992 640" xml:space="preserve">
<path fill="#000000" opacity="1.000000" stroke="none" 
	d="
M592.712585,341.584534 
	C582.712097,337.967529 577.371338,329.506226 570.738708,322.616119 
	C562.425720,313.980469 554.424866,305.042175 546.371948,296.159546 
	C544.066711,293.616791 541.478394,291.963867 538.113281,290.954102 
	C529.881714,288.484192 522.407227,284.459381 516.409668,278.156464 
	C514.387756,276.031555 512.185303,275.165405 509.320435,275.337799 
	C506.664825,275.497559 503.981842,275.517944 501.328308,275.339966 
	C491.896698,274.707214 483.220734,275.135468 476.048950,283.162140 
	C472.045746,287.642517 465.559540,289.501862 459.621185,291.197113 
	C456.565094,292.069550 454.363068,293.677643 452.258423,295.954987 
	C440.285889,308.909821 428.357147,321.912170 416.093201,334.588470 
	C406.313263,344.697205 387.611633,347.048126 375.234192,340.272186 
	C365.941406,335.184875 361.112396,325.289215 362.922913,314.011200 
	C366.527710,291.556030 370.313202,269.129242 374.176880,246.717087 
	C374.596985,244.280014 374.349854,242.175888 373.620239,239.916519 
	C364.973022,213.138229 377.691650,189.462021 404.742249,181.405914 
	C416.242767,177.980850 427.964935,177.538406 439.793823,177.580002 
	C453.951721,177.629791 468.110077,177.597366 482.267456,177.704544 
	C485.136932,177.726257 487.542297,177.419052 488.746674,174.339767 
	C489.588715,172.186813 491.380768,171.636063 493.592468,171.655594 
	C501.421234,171.724716 509.250946,171.688690 517.080322,171.676056 
	C519.000488,171.672958 520.792908,171.880005 521.575867,174.009842 
	C522.867310,177.522903 525.663208,177.742188 528.874023,177.716599 
	C541.865906,177.613098 554.866638,177.405029 567.849854,177.759750 
	C581.986206,178.145966 595.361084,181.520126 607.912231,188.466263 
	C621.020752,195.720963 625.892761,207.452927 627.243958,221.321274 
	C627.626648,225.247879 628.012878,229.404678 626.483093,233.204193 
	C622.771301,242.423386 625.137756,251.527237 626.691956,260.654358 
	C629.507019,277.185364 632.728455,293.655548 635.150269,310.243073 
	C638.476929,333.027924 618.723267,349.164398 595.918945,342.679413 
	C594.959473,342.406555 594.024414,342.047668 592.712585,341.584534 
M425.501129,191.272232 
	C416.271912,191.879944 407.587158,194.317551 399.162964,198.210861 
	C390.771271,202.089172 386.375397,208.849899 384.721771,217.348755 
	C383.520721,223.521851 383.376587,229.972855 385.878448,236.059921 
	C387.376617,239.705002 387.860992,243.444427 387.216644,247.306458 
	C385.084747,260.084717 382.809845,272.839935 380.783203,285.634644 
	C379.147461,295.961487 376.302124,306.139984 376.250183,316.666992 
	C376.207916,325.229370 381.854126,330.481720 390.339111,330.879486 
	C399.098083,331.290161 405.600586,327.367706 411.298523,321.196716 
	C422.711670,308.835999 434.302368,296.639252 445.733459,284.294891 
	C447.743958,282.123749 450.011475,280.621063 452.828064,279.928650 
	C461.819214,277.718231 469.451019,273.183655 475.678589,266.376373 
	C478.120789,263.706848 480.927216,262.616119 484.517181,262.662262 
	C494.346710,262.788513 504.180115,262.792816 514.009460,262.660706 
	C517.779480,262.610016 520.695557,263.762634 523.229492,266.622559 
	C528.177734,272.207306 534.166260,276.615845 541.393005,278.483368 
	C547.842407,280.150024 552.667114,283.469818 557.006775,288.418671 
	C567.545837,300.437164 578.423279,312.160889 589.254822,323.920135 
	C595.555481,330.760468 606.839172,333.090210 614.532349,329.358643 
	C621.849854,325.809265 623.780579,320.446350 621.848206,308.790009 
	C618.397095,287.972595 614.984436,267.148254 611.366089,246.359802 
	C610.855103,243.423843 611.079529,240.916550 612.052185,238.135132 
	C618.619324,219.356384 613.100159,199.818344 588.934814,194.075699 
	C579.028015,191.721466 568.942444,190.431580 558.808289,190.386734 
	C518.651184,190.208954 478.492798,190.325653 438.334900,190.296173 
	C434.327179,190.293243 430.347321,190.407089 425.501129,191.272232 
z"/>
<path fill="#000000" opacity="1.000000" stroke="none" 
	d="
M627.587219,420.291504 
	C631.039490,409.853088 626.535645,403.380432 616.085571,403.334991 
	C601.921082,403.273468 587.756104,403.298981 573.591492,403.341980 
	C571.218506,403.349182 568.263794,402.629059 568.344116,406.707703 
	C568.423767,410.751648 571.424927,409.964325 573.753479,409.977966 
	C586.584656,410.053284 599.416443,410.026611 612.247986,410.040466 
	C613.580750,410.041901 614.916138,410.033661 616.245667,410.110352 
	C619.130798,410.276855 621.851868,411.181366 621.950378,414.475586 
	C622.058655,418.095093 619.210327,419.207214 616.138428,419.219269 
	C598.474609,419.288513 580.810242,419.232361 563.146423,419.295349 
	C560.095459,419.306244 558.983276,417.847412 559.010742,415.015991 
	C559.064209,409.517273 559.112610,404.017578 559.064331,398.519165 
	C559.036377,395.331818 560.568848,394.022552 563.655212,394.062714 
	C581.975098,394.301270 600.302429,393.495575 618.617981,394.508698 
	C627.094299,394.977539 633.112244,399.062592 636.516479,406.751984 
	C640.070435,414.779694 638.090454,422.020355 632.788574,428.619263 
	C632.383484,429.123413 631.998108,429.643341 631.499878,430.290619 
	C633.509216,433.613495 636.051331,436.471069 637.226685,440.206696 
	C641.010681,452.233124 633.195496,465.144897 620.595032,466.278839 
	C601.490845,467.998138 582.305847,466.712830 563.157288,466.929535 
	C560.208740,466.962921 558.986816,465.434845 558.999146,462.577972 
	C559.045959,451.746582 559.041504,440.914978 559.061890,430.083435 
	C559.067200,427.257965 560.331787,425.803070 563.323364,425.845459 
	C568.821228,425.923340 574.322205,425.910065 579.820007,425.817719 
	C583.042053,425.763641 584.104187,427.286591 584.255127,430.386627 
	C584.807922,441.741364 584.889587,441.735931 596.590088,441.736176 
	C602.755920,441.736267 608.922424,441.690460 615.087280,441.767975 
	C618.167297,441.806671 621.672180,442.092346 621.875122,446.015228 
	C622.090149,450.172058 618.751038,451.066620 615.312012,451.076874 
	C603.480469,451.112244 591.648499,451.042816 579.817322,451.115601 
	C576.428894,451.136444 574.928772,449.694397 575.034424,446.318085 
	C575.117676,443.656952 575.026062,440.988556 574.955383,438.324890 
	C574.893127,435.978149 573.510925,435.205994 571.317139,435.276978 
	C569.204834,435.345337 568.343689,436.404388 568.347900,438.420319 
	C568.359009,443.752655 568.369019,449.085297 568.324585,454.417358 
	C568.305054,456.758698 569.446960,457.687836 571.702698,457.682617 
	C587.533325,457.646057 603.367249,457.820404 619.192932,457.533173 
	C625.053162,457.426758 629.037720,452.311218 628.953674,446.306976 
	C628.871887,440.463531 624.752563,435.699921 618.750183,435.402985 
	C611.268433,435.032837 603.757812,435.188904 596.260193,435.224335 
	C593.080383,435.239349 590.717041,434.841644 590.776917,430.711517 
	C590.832825,426.850098 592.816711,425.886322 596.154785,425.918579 
	C602.819824,425.982941 609.486023,425.916107 616.151733,425.924591 
	C620.742310,425.930450 624.668823,424.558868 627.587219,420.291504 
z"/>
<path fill="#000000" opacity="1.000000" stroke="none" 
	d="
M756.352661,437.304321 
	C752.118408,444.022766 747.037231,449.780426 743.512390,456.929749 
	C747.927368,458.538055 750.788513,457.505524 753.149109,453.877289 
	C756.747375,448.346710 760.655945,443.018158 764.864014,436.985687 
	C769.818237,442.342285 773.270935,447.778076 776.631653,453.231110 
	C779.071167,457.189484 782.124329,458.727234 787.372803,456.918427 
	C783.739380,451.556946 780.324341,446.335846 776.725281,441.244843 
	C769.275146,430.706421 769.244751,430.741455 776.330139,420.176422 
	C779.845947,414.934021 783.911377,410.049194 786.931335,404.120239 
	C781.050354,401.396790 778.088501,405.249695 775.218445,409.477203 
	C772.393372,407.160309 769.344055,404.848053 770.406128,401.694763 
	C771.676086,397.924530 773.892944,393.978760 779.132629,394.027252 
	C786.130310,394.092010 793.129211,394.012360 800.127441,394.036682 
	C801.439148,394.041229 802.833435,394.004608 804.127869,395.823730 
	C800.749023,400.798828 797.249084,405.996918 793.702026,411.162567 
	C790.024414,416.518219 786.441467,421.948212 782.536682,427.134521 
	C780.669373,429.614532 780.952454,431.401215 782.627502,433.774445 
	C788.870850,442.620117 794.953003,451.580017 801.051514,460.527130 
	C802.152771,462.142700 803.716248,463.552643 803.805054,465.733276 
	C802.373779,467.378357 800.434143,466.908936 798.660095,466.995117 
	C796.997498,467.075867 795.301331,466.826843 793.666138,467.054535 
	C781.709656,468.719360 771.604370,466.593109 766.351379,454.117126 
	C766.192383,453.739471 765.611206,453.539551 764.840210,452.972229 
	C762.994629,455.591888 760.890686,457.979767 759.471558,460.722046 
	C756.827271,465.831635 752.903870,467.587585 747.272766,467.119080 
	C742.142334,466.692200 736.948975,467.030060 731.783325,467.015320 
	C729.981995,467.010193 728.130249,467.197052 726.623596,466.144012 
	C726.013367,464.162567 727.400818,463.156616 728.198059,461.999451 
	C737.648499,448.282562 747.042603,434.524506 756.702209,420.955750 
	C758.978027,417.758881 759.605408,415.266022 756.801941,412.225189 
	C755.462219,410.772034 754.414062,409.015656 753.411133,407.293396 
	C751.241882,403.568512 748.206543,402.415680 743.843811,403.939972 
	C744.109009,406.933228 746.303284,408.903076 747.781067,411.185150 
	C751.633972,417.134949 751.635681,417.443665 745.525940,423.606659 
	C738.924011,414.231537 732.425171,405.002808 726.094971,396.013580 
	C727.180115,393.942108 728.612793,394.058380 729.899658,394.051239 
	C737.064514,394.011475 744.229919,394.062805 751.394714,394.015381 
	C754.145874,393.997162 756.057800,395.081848 757.586365,397.430389 
	C761.037964,402.733398 764.555115,408.007935 768.340454,413.073700 
	C770.305542,415.703522 770.049377,417.659790 768.220337,420.165039 
	C764.194458,425.678986 760.420593,431.376862 756.352661,437.304321 
z"/>
<path fill="#000000" opacity="1.000000" stroke="none" 
	d="
M211.000595,425.813354 
	C223.826920,425.840179 236.153778,425.942047 248.479599,425.868408 
	C256.142639,425.822632 261.755127,420.828644 261.573639,414.524353 
	C261.381866,407.862000 256.084015,403.358521 248.234711,403.335510 
	C233.909088,403.293488 219.583221,403.310547 205.257538,403.336487 
	C202.974136,403.340607 200.381363,402.891357 200.353210,406.577179 
	C200.325714,410.174683 202.776001,409.973938 205.147583,409.976929 
	C218.473846,409.993683 231.800140,409.979187 245.126297,410.019165 
	C246.948074,410.024628 248.788727,410.153168 250.585526,410.442596 
	C252.810043,410.800842 254.154083,412.171448 254.240143,414.510010 
	C254.327774,416.890778 252.877411,418.251953 250.816193,418.839752 
	C249.406097,419.241913 247.859573,419.282166 246.373734,419.284546 
	C230.049088,419.310913 213.723038,419.182800 197.400604,419.374023 
	C193.135742,419.423981 191.305679,418.230865 191.583160,413.732330 
	C191.900482,408.587708 191.739044,403.407532 191.638092,398.245697 
	C191.586197,395.592316 192.547302,394.088928 195.313507,394.111206 
	C214.122971,394.262848 232.966370,393.057190 251.732864,394.664856 
	C263.946869,395.711212 270.960205,404.428345 270.310089,416.309143 
	C269.735748,426.804169 260.916779,435.006958 249.451126,435.174255 
	C235.128510,435.383270 220.797363,435.383575 206.476410,435.119965 
	C201.708405,435.032166 199.838287,436.454041 200.268509,441.337585 
	C200.647156,445.635803 200.398605,449.993103 200.350601,454.323486 
	C200.325363,456.599579 201.258911,457.668335 203.609665,457.683411 
	C205.962997,457.698517 207.522079,457.026611 207.548630,454.377075 
	C207.578674,451.379272 207.699249,448.380341 207.645523,445.384308 
	C207.585068,442.012787 209.736420,441.761871 212.296722,441.745300 
	C214.932861,441.728241 216.343063,442.696869 216.309418,445.532990 
	C216.240295,451.362213 216.223526,457.194214 216.328171,463.022461 
	C216.379944,465.906769 214.807114,466.896027 212.320572,466.916534 
	C206.658432,466.963257 200.995514,466.923279 195.332962,466.905609 
	C192.580673,466.897003 191.618729,465.424286 191.636246,462.768768 
	C191.707657,451.941681 191.734268,441.113220 191.625015,430.286774 
	C191.592773,427.091888 192.800522,425.737946 196.009537,425.810760 
	C200.837463,425.920349 205.670074,425.823425 211.000595,425.813354 
z"/>
<path fill="#000000" opacity="1.000000" stroke="none" 
	d="
M416.829010,445.301910 
	C414.009338,440.406616 418.004730,438.175934 420.210693,434.418335 
	C425.113922,440.410278 428.194855,446.831421 431.631927,452.963501 
	C433.829895,456.884918 436.368347,458.767365 441.681000,456.896362 
	C434.675842,444.762482 427.767059,432.795502 420.316467,419.890106 
	C416.253143,426.850830 412.667236,432.961914 409.112427,439.090973 
	C404.432556,447.159760 399.778534,455.243500 395.109589,463.318604 
	C394.281281,464.751129 393.632233,466.603394 391.737244,466.717682 
	C383.161346,467.234833 374.590515,467.159821 364.697662,466.680115 
	C368.755127,459.529175 372.137177,453.504944 375.578918,447.514923 
	C384.872955,431.339783 394.153137,415.156464 403.523376,399.025513 
	C406.726257,393.511810 408.505096,392.986145 415.947632,395.252655 
	C404.174530,415.800995 392.508972,436.161713 380.673676,456.818634 
	C385.718445,458.804016 388.457794,457.180634 390.761414,453.092285 
	C399.346985,437.855042 408.143738,422.736542 416.907776,407.600403 
	C417.796906,406.064880 418.439392,404.265900 420.890289,402.792755 
	C433.028381,423.722168 445.076447,444.496338 457.001801,465.058868 
	C455.628540,467.358978 453.806519,466.933258 452.236572,466.973907 
	C448.572357,467.068695 444.819458,466.507324 441.254120,467.109589 
	C432.054962,468.663422 426.547577,464.734192 423.081635,456.506287 
	C421.476135,452.694855 419.049622,449.229248 416.829010,445.301910 
z"/>
<path fill="#000000" opacity="1.000000" stroke="none" 
	d="
M279.653564,443.896057 
	C279.657104,428.751892 279.786591,414.093842 279.586273,399.440277 
	C279.528656,395.223816 281.108948,393.813416 285.116516,393.980560 
	C289.938263,394.181702 294.775299,394.100342 299.603851,394.023712 
	C302.838684,393.972412 304.451752,395.056152 304.396667,398.654083 
	C304.233459,409.310730 304.278015,419.972015 304.375397,430.630280 
	C304.403259,433.681671 303.541992,435.207581 300.158386,435.240509 
	C296.563141,435.275452 295.562897,433.675842 295.615845,430.386383 
	C295.739075,422.727203 295.604553,415.064178 295.666626,407.403442 
	C295.687103,404.875732 295.169861,403.251282 292.111664,403.312805 
	C289.239075,403.370636 288.356567,404.754059 288.367706,407.369873 
	C288.410919,417.529114 288.473999,427.689972 288.335541,437.847565 
	C288.278839,442.006256 290.944916,441.747375 293.689087,441.745789 
	C313.175354,441.734467 332.661621,441.733704 352.147888,441.730896 
	C359.236145,441.729858 359.239655,441.731506 359.238220,449.024597 
	C359.237457,453.021759 359.030548,457.030304 359.266449,461.012970 
	C359.516418,465.232758 357.990387,467.063171 353.597565,467.039795 
	C330.614410,466.917389 307.630341,466.939087 284.646667,466.972473 
	C281.206543,466.977478 279.521301,465.906738 279.584839,462.054047 
	C279.646759,458.298584 281.475891,457.676025 284.591736,457.685913 
	C303.245056,457.745209 321.898682,457.711639 340.552185,457.709076 
	C342.051117,457.708862 343.550385,457.726807 345.048950,457.702362 
	C347.387360,457.664185 349.958923,458.005890 349.823547,454.346680 
	C349.691559,450.778503 347.098785,451.191986 344.798584,451.125916 
	C343.134369,451.078064 341.467865,451.107544 339.802368,451.106934 
	C321.981598,451.100555 304.160767,451.109650 286.340027,451.081604 
	C279.784302,451.071259 279.784363,451.031494 279.653564,443.896057 
z"/>
<path fill="#000000" opacity="1.000000" stroke="none" 
	d="
M525.440186,430.602386 
	C523.440308,432.915680 523.085327,435.303833 523.103943,437.890686 
	C523.161499,445.889465 523.009216,453.890839 523.151367,461.887451 
	C523.216248,465.534180 521.697754,467.062897 518.137207,467.008087 
	C513.305542,466.933685 508.467560,466.871368 503.640228,467.036560 
	C499.463043,467.179535 497.585236,465.662140 497.732635,461.221405 
	C497.981293,453.730530 497.705994,446.223785 497.818878,438.726227 
	C497.865845,435.606110 497.154541,432.988861 495.297150,430.369537 
	C488.168549,420.316650 481.260864,410.106842 474.296875,399.937714 
	C473.377716,398.595581 472.048828,397.431458 472.066071,395.526337 
	C473.282532,393.655365 475.252228,394.087769 476.991486,394.068390 
	C483.156921,393.999664 489.352509,394.398651 495.481293,393.916382 
	C501.403809,393.450317 503.278625,397.670990 505.353241,401.507019 
	C507.516998,405.507904 503.216095,407.136108 501.745972,410.632996 
	C497.842865,406.877228 495.622375,400.748779 488.779022,404.203491 
	C489.804108,407.582367 492.152740,410.261841 494.337952,412.817932 
	C504.146027,424.290802 510.055542,436.923584 507.286072,452.454590 
	C507.257294,452.616028 507.283447,452.787262 507.283813,452.953918 
	C507.288971,455.340271 507.062408,457.757782 510.693542,457.690277 
	C513.831482,457.631927 514.106079,455.646454 514.110901,453.321136 
	C514.120239,448.828400 514.324524,444.322540 514.052979,439.846100 
	C513.714600,434.268066 515.040161,429.458344 518.506470,424.953033 
	C522.562317,419.681488 526.103638,414.013916 529.862549,408.514313 
	C530.781006,407.170532 531.972717,405.955017 532.122864,403.979401 
	C527.713074,402.451141 524.598999,403.386475 522.056580,407.511566 
	C518.678223,412.993011 514.777588,418.152527 511.103058,423.447937 
	C505.269684,419.310181 504.849579,417.536774 508.254242,412.435577 
	C511.676483,407.307953 515.167908,402.225708 518.528687,397.058258 
	C519.824951,395.065063 521.422974,394.005219 523.847229,394.023926 
	C531.179321,394.080505 538.512024,394.043396 545.844482,394.061249 
	C547.009460,394.064087 548.157166,394.210693 549.636780,395.551361 
	C541.632019,407.144073 533.642517,418.714691 525.440186,430.602386 
z"/>
<path fill="#000000" opacity="1.000000" stroke="none" 
	d="
M656.967407,405.005676 
	C667.889709,392.906860 681.203491,388.708191 696.457031,392.672668 
	C713.029907,396.980042 722.764771,408.086334 725.458191,425.160339 
	C729.495911,450.755798 707.268188,470.482574 686.986511,469.570618 
	C670.222717,468.816864 658.216125,461.837921 651.250488,446.927002 
	C644.341248,432.136871 646.711914,418.083496 656.967407,405.005676 
M715.835022,439.161865 
	C717.051086,436.491089 716.904541,433.595856 716.914673,430.808502 
	C716.963440,417.376923 710.444519,407.921234 698.373474,402.666321 
	C686.747253,397.605042 675.844482,399.949982 666.336243,408.089722 
	C657.294434,415.830200 654.126160,428.529419 657.963135,439.898132 
	C662.059509,452.035492 672.726746,460.405487 684.483582,460.707275 
	C699.790222,461.100220 709.869385,454.380554 715.835022,439.161865 
z"/>
<path fill="#000000" opacity="1.000000" stroke="none" 
	d="
M444.058167,257.205841 
	C444.056213,260.662415 444.093140,263.650452 444.037537,266.636719 
	C444.016083,267.786652 444.139435,269.150787 443.590363,270.044952 
	C440.028442,275.845947 434.302216,272.614197 429.525665,273.055298 
	C426.297516,273.353455 424.935852,270.742889 424.860870,267.769806 
	C424.743744,263.126007 424.607819,258.466736 424.854462,253.833954 
	C425.134613,248.571503 429.308563,245.943756 433.003265,243.188263 
	C434.292664,242.226624 435.894928,242.836487 437.128418,243.888794 
	C441.096710,247.274170 445.038239,250.680099 444.058167,257.205841 
M436.715485,259.527954 
	C436.269714,256.888916 437.886108,253.554321 433.569733,251.437988 
	C431.564667,255.904114 432.113159,260.209442 432.643463,264.473724 
	C432.747070,265.306641 433.693573,265.685791 434.584991,265.645111 
	C435.472260,265.604675 436.267578,265.191345 436.420319,264.305298 
	C436.641418,263.022614 436.630768,261.699982 436.715485,259.527954 
z"/>
<path fill="#000000" opacity="1.000000" stroke="none" 
	d="
M443.463531,203.879883 
	C444.534088,209.746796 444.098389,215.238327 443.911499,220.698944 
	C443.736145,225.823608 439.683868,228.500732 435.989777,230.882202 
	C433.285950,232.625305 426.805145,227.816467 425.535583,222.908783 
	C423.985962,216.918549 424.533966,210.728073 425.241669,204.626450 
	C425.345703,203.729614 426.015320,202.734589 426.710419,202.099152 
	C429.387085,199.652313 440.461853,200.625458 443.463531,203.879883 
M432.396484,210.303299 
	C432.626373,214.340576 430.898438,218.716675 434.093048,222.537735 
	C436.376770,220.252533 437.750946,211.342621 436.304962,209.427307 
	C435.125092,207.864471 433.807037,208.139267 432.396484,210.303299 
z"/>
<path fill="#000000" opacity="1.000000" stroke="none" 
	d="
M401.509399,228.011551 
	C407.275940,227.802704 412.604797,227.645691 417.930756,227.714355 
	C421.291199,227.757660 427.567902,232.833023 428.460541,235.937271 
	C429.377502,239.125961 423.709503,245.820892 419.205414,246.129105 
	C413.569733,246.514740 407.887756,246.243530 402.225983,246.212326 
	C401.011566,246.205643 399.985626,245.700150 399.293213,244.614822 
	C397.620941,241.993744 398.845398,230.545425 401.509399,228.011551 
M418.871216,236.090500 
	C415.580170,234.041656 411.930817,234.279419 408.339264,234.628296 
	C405.602722,234.894104 405.000702,236.834427 406.374603,238.858368 
	C407.928741,241.147842 417.705292,239.355164 418.871216,236.090500 
z"/>
<path fill="#000000" opacity="1.000000" stroke="none" 
	d="
M460.923920,227.674774 
	C470.312317,227.720352 470.323181,227.729706 470.322968,236.553345 
	C470.322906,238.214584 470.298340,239.875824 470.297546,241.537064 
	C470.296112,244.558258 468.824799,246.236221 465.775085,246.267700 
	C460.625793,246.320847 455.461456,246.517029 450.329681,246.212006 
	C445.270874,245.911285 442.751160,241.853058 440.264832,238.155243 
	C439.146484,236.491974 440.707855,235.192795 441.651459,233.790710 
	C446.353607,226.803864 453.450134,227.458511 460.923920,227.674774 
M455.795898,234.423050 
	C453.449829,234.703644 449.742188,234.077469 449.781921,237.083984 
	C449.830139,240.732681 453.707672,239.327179 456.096344,239.651764 
	C456.741394,239.739426 457.426483,239.763962 458.061951,239.647339 
	C460.043549,239.283646 463.221741,240.909790 463.243256,237.046356 
	C463.265045,233.141342 460.070587,234.813751 458.098358,234.439178 
	C457.622894,234.348877 457.115540,234.426315 455.795898,234.423050 
z"/>
<path fill="#000000" opacity="1.000000" stroke="none" 
	d="
M555.764160,243.912308 
	C548.418945,247.976105 541.722656,245.683258 540.687195,239.040268 
	C539.978455,234.493439 541.300415,230.799026 545.752197,228.780930 
	C549.875061,226.911926 553.604858,227.722290 556.593201,231.027832 
	C559.784729,234.558090 559.493652,238.900467 555.764160,243.912308 
z"/>
<path fill="#000000" opacity="1.000000" stroke="none" 
	d="
M571.648621,266.988190 
	C563.801636,266.074280 559.748596,261.660492 561.210571,255.930374 
	C562.360962,251.421844 565.297241,248.863937 570.065796,248.705368 
	C574.391602,248.561508 577.469299,250.578644 578.819397,254.611221 
	C580.281677,258.978943 579.192322,262.782593 575.140991,265.386108 
	C574.177307,266.005463 573.072266,266.404846 571.648621,266.988190 
z"/>
<path fill="#000000" opacity="1.000000" stroke="none" 
	d="
M579.277710,217.688995 
	C577.089905,223.909927 573.826172,226.112030 568.539001,225.331528 
	C564.517273,224.737839 561.069336,220.873932 560.872070,216.739746 
	C560.676758,212.644913 563.983276,208.500381 568.339844,207.379395 
	C574.189758,205.874161 579.044373,210.254257 579.277710,217.688995 
z"/>
<path fill="#000000" opacity="1.000000" stroke="none" 
	d="
M582.569519,240.942673 
	C580.710449,235.629028 582.007324,231.665848 586.549377,229.056503 
	C590.518555,226.776260 594.295776,227.500214 597.480225,230.683182 
	C601.314575,234.515762 600.971924,240.278214 596.839661,243.964386 
	C592.509094,247.827469 587.293091,246.844559 582.569519,240.942673 
z"/>
<path fill="#000000" opacity="1.000000" stroke="none" 
	d="
M509.965027,202.252930 
	C503.840363,202.247452 498.209381,202.265915 492.578827,202.223389 
	C490.166473,202.205170 487.464172,201.885101 487.285858,198.948013 
	C487.088867,195.703720 489.850311,194.976990 492.457703,194.948074 
	C500.902679,194.854401 509.350311,194.830551 517.794556,194.947220 
	C520.267395,194.981369 523.213013,195.288605 523.064209,198.756622 
	C522.934387,201.782898 520.300049,202.112289 517.910522,202.207077 
	C515.429932,202.305466 512.943054,202.243820 509.965027,202.252930 
z"/>
<path fill="#000000" opacity="1.000000" stroke="none" 
	d="
M675.834961,409.593994 
	C686.109131,404.983246 696.278015,406.567810 703.406738,413.671631 
	C710.318909,420.559631 712.229187,431.308197 708.174805,440.499786 
	C704.476074,448.885193 695.370728,454.571442 686.164490,454.245209 
	C675.805237,453.878052 666.923828,447.115265 664.216064,437.532379 
	C661.029297,426.254272 664.837341,416.875549 675.834961,409.593994 
M680.236084,443.581116 
	C681.659180,443.998596 683.056824,444.597992 684.509888,444.801666 
	C690.431458,445.631805 695.454956,443.954895 698.781006,438.788055 
	C702.093933,433.641663 702.584717,428.254486 699.183655,422.857422 
	C695.807434,417.499664 690.882751,415.461334 684.707275,416.139099 
	C679.147949,416.749237 674.132935,421.069916 672.605042,426.546082 
	C670.802979,433.004608 673.155945,438.645477 680.236084,443.581116 
z"/>
</svg>